<svg xmlns="http://www.w3.org/2000/svg" width="20" height="19" viewBox="0 0 20 19" fill="none">
  <path d="M4.14176 12.2436C4.1677 12.2176 4.20977 12.2176 4.23571 12.2436L6.0396 14.0482C6.06554 14.0742 6.06554 14.1162 6.0396 14.1422L2.29089 17.8925C1.76682 18.4168 0.917129 18.4168 0.393055 17.8925C-0.131019 17.3682 -0.131018 16.5181 0.393055 15.9939L4.14176 12.2436Z" fill="#0AC251" fill-opacity="0.85"/>
  <path d="M8.93207 11.2474L7.45867 12.7214C7.22426 12.956 6.8442 12.956 6.60978 12.7214L2.25316 8.36297C1.72909 7.83868 1.72909 6.98862 2.25316 6.46433C2.77724 5.94003 3.62693 5.94003 4.151 6.46433L8.93207 11.2474Z" fill="url(#paint0_linear_3713_12974)"/>
  <path d="M13.6769 15.9938C14.201 16.5181 14.201 17.3682 13.6769 17.8925C13.1529 18.4168 12.3032 18.4168 11.7791 17.8925L8.03038 14.1422C8.00444 14.1162 8.00444 14.0741 8.03038 14.0482L9.83427 12.2435C9.86021 12.2176 9.90228 12.2176 9.92822 12.2435L13.6769 15.9938Z" fill="#0AC251" fill-opacity="0.85"/>
  <path d="M14.7991 1.58149L19.838 0.00614953C19.9619 -0.0326007 20.0548 0.120848 19.9629 0.212711L7.2109 12.9702C7.11385 13.0672 6.95649 13.0672 6.85943 12.9702L5.13733 11.2473L14.7991 1.58149Z" fill="#0AC251"/>
  <defs>
    <linearGradient id="paint0_linear_3713_12974" x1="7.98314" y1="12.1967" x2="2.25073" y2="6.46676" gradientUnits="userSpaceOnUse">
      <stop stop-color="#0C9943"/>
      <stop offset="1" stop-color="#0AC251"/>
    </linearGradient>
  </defs>
</svg>
