<svg xmlns="http://www.w3.org/2000/svg" width="96" height="96" viewBox="0 0 96 96" fill="none">
  <path d="M55.9384 95.8911C63.8002 95.8911 71.4854 93.5598 78.0223 89.192C84.5591 84.8242 89.654 78.6161 92.6626 71.3527C95.6711 64.0894 96.4583 56.097 94.9246 48.3862C93.3908 40.6755 89.605 33.5927 84.0459 28.0336C78.4867 22.4744 71.4039 18.6886 63.6932 17.1549C55.9825 15.6211 47.9901 16.4083 40.7267 19.4169C33.4633 22.4254 27.2552 27.5203 22.8874 34.0572C18.5197 40.594 16.1884 48.2793 16.1884 56.1411C16.1884 66.6834 20.3763 76.794 27.8309 84.2486C35.2854 91.7031 45.396 95.8911 55.9384 95.8911Z" fill="#DFDAFC"/>
  <g opacity="0.8">
    <path fill-rule="evenodd" clip-rule="evenodd" d="M85.2634 53.5086L81.1534 52.6461L80.2759 47.7561C80.244 47.5813 80.151 47.4236 80.0137 47.311C79.8763 47.1984 79.7035 47.1382 79.5259 47.1411C79.3483 47.1382 79.1755 47.1984 79.0381 47.311C78.9008 47.4236 78.8078 47.5813 78.7759 47.7561L77.8984 52.6461L73.7959 53.5086C73.597 53.5086 73.4062 53.5876 73.2656 53.7282C73.1249 53.8689 73.0459 54.0596 73.0459 54.2586C73.0459 54.4575 73.1249 54.6482 73.2656 54.7889C73.4062 54.9295 73.597 55.0086 73.7959 55.0086L77.8984 55.8711L78.7759 60.7536C78.8078 60.9283 78.9008 61.086 79.0381 61.1986C79.1755 61.3112 79.3483 61.3715 79.5259 61.3686C79.7035 61.3715 79.8763 61.3112 80.0137 61.1986C80.151 61.086 80.244 60.9283 80.2759 60.7536L81.1534 55.8711L85.2634 55.0086C85.4623 55.0086 85.6531 54.9295 85.7937 54.7889C85.9344 54.6482 86.0134 54.4575 86.0134 54.2586C86.0134 54.0596 85.9344 53.8689 85.7937 53.7282C85.6531 53.5876 85.4623 53.5086 85.2634 53.5086Z" fill="#6B46EF"/>
    <path fill-rule="evenodd" clip-rule="evenodd" d="M29.7634 15.2586L25.6534 14.3961L24.7759 9.50606C24.744 9.33134 24.651 9.17363 24.5137 9.06101C24.3763 8.94839 24.2035 8.88816 24.0259 8.89106C23.8483 8.88816 23.6755 8.94839 23.5381 9.06101C23.4008 9.17363 23.3078 9.33134 23.2759 9.50606L22.3984 14.3961L18.2959 15.2586C18.097 15.2586 17.9062 15.3376 17.7656 15.4782C17.6249 15.6189 17.5459 15.8096 17.5459 16.0086C17.5459 16.2075 17.6249 16.3982 17.7656 16.5389C17.9062 16.6795 18.097 16.7586 18.2959 16.7586L22.3984 17.6211L23.2759 22.5036C23.3078 22.6783 23.4008 22.836 23.5381 22.9486C23.6755 23.0612 23.8483 23.1215 24.0259 23.1186C24.2035 23.1215 24.3763 23.0612 24.5137 22.9486C24.651 22.836 24.744 22.6783 24.7759 22.5036L25.6534 17.6211L29.7634 16.7586C29.9623 16.7586 30.1531 16.6795 30.2937 16.5389C30.4344 16.3982 30.5134 16.2075 30.5134 16.0086C30.5134 15.8096 30.4344 15.6189 30.2937 15.4782C30.1531 15.3376 29.9623 15.2586 29.7634 15.2586Z" fill="#6B46EF"/>
    <path fill-rule="evenodd" clip-rule="evenodd" d="M50.8009 82.9836L48.7084 82.5411L48.2509 80.0061C48.219 79.8313 48.126 79.6736 47.9887 79.561C47.8513 79.4484 47.6785 79.3882 47.5009 79.3911C47.3233 79.3882 47.1505 79.4484 47.0131 79.561C46.8758 79.6736 46.7828 79.8313 46.7509 80.0061L46.3009 82.5411L44.2009 82.9836C44.0303 83.0202 43.8778 83.1151 43.7697 83.252C43.6616 83.3888 43.6045 83.5591 43.6084 83.7336C43.6045 83.908 43.6616 84.0783 43.7697 84.2152C43.8778 84.3521 44.0303 84.447 44.2009 84.4836L46.3009 84.9261L46.7509 87.4611C46.7828 87.6358 46.8758 87.7935 47.0131 87.9061C47.1505 88.0187 47.3233 88.079 47.5009 88.0761C47.6785 88.079 47.8513 88.0187 47.9887 87.9061C48.126 87.7935 48.219 87.6358 48.2509 87.4611L48.7084 84.9261L50.8009 84.4836C50.9729 84.4485 51.1271 84.3542 51.2367 84.2172C51.3463 84.0802 51.4044 83.909 51.4009 83.7336C51.4044 83.5581 51.3463 83.387 51.2367 83.2499C51.1271 83.1129 50.9729 83.0186 50.8009 82.9836Z" fill="#6B46EF"/>
  </g>
  <path opacity="0.8" fill-rule="evenodd" clip-rule="evenodd" d="M51.8734 39.4311C53.1859 40.3566 54.7437 40.8714 56.3493 40.9102C57.9548 40.9491 59.5357 40.5102 60.8915 39.6493C62.2472 38.7884 63.3168 37.5443 63.9644 36.0746C64.6121 34.605 64.8087 32.9761 64.5293 31.3946C64.2499 29.8131 63.5071 28.3502 62.3951 27.1914C61.2831 26.0327 59.852 25.2303 58.2833 24.8861C56.7146 24.5418 55.079 24.6712 53.584 25.2578C52.089 25.8445 50.8018 26.8619 49.8859 28.1811C48.6653 29.939 48.1892 32.1081 48.5616 34.2156C48.9339 36.323 50.1243 38.1978 51.8734 39.4311ZM49.9384 42.1986C51.7987 43.5014 54.0035 44.2233 56.2741 44.273C58.5447 44.3227 60.7791 43.6979 62.6946 42.4776C64.61 41.2574 66.1207 39.4965 67.0353 37.4177C67.95 35.3389 68.2277 33.0356 67.8333 30.799C67.4388 28.5623 66.3899 26.4929 64.8193 24.8524C63.2487 23.2119 61.2269 22.074 59.0095 21.5827C56.7922 21.0913 54.4789 21.2686 52.3623 22.092C50.2457 22.9154 48.4208 24.348 47.1184 26.2086C45.3723 28.703 44.6884 31.7889 45.2173 34.7875C45.7461 37.7861 47.4443 40.4519 49.9384 42.1986Z" fill="#6B46EF"/>
  <path opacity="0.6" fill-rule="evenodd" clip-rule="evenodd" d="M23.0658 84.1085C24.6842 83.3771 26.1076 82.2749 27.2208 80.891C28.7208 78.7235 29.0883 77.081 29.0208 76.0535C28.9894 75.616 28.861 75.1909 28.6448 74.8091C28.4287 74.4273 28.1303 74.0985 27.7712 73.8464C27.4121 73.5943 27.0015 73.4254 26.569 73.3518C26.1365 73.2782 25.693 73.3019 25.2708 73.421C24.2733 73.706 22.8558 74.5985 21.3333 76.766C20.4175 78.2859 19.8704 79.9992 19.7358 81.7685C19.5959 83.0134 19.5408 84.2662 19.5708 85.5185C20.7664 85.1283 21.9341 84.6572 23.0658 84.1085V84.1085ZM18.7758 89.3585C21.8883 88.481 27.4458 86.4785 29.9808 82.8485C33.6183 77.6585 32.8608 73.3085 29.7033 71.096C26.5458 68.8835 22.2033 69.6635 18.5658 74.846C16.0233 78.476 16.0383 84.3785 16.3158 87.596C16.3339 87.8845 16.4164 88.1652 16.5573 88.4176C16.6981 88.6699 16.8937 88.8876 17.1296 89.0545C17.3656 89.2214 17.6359 89.3333 17.9208 89.382C18.2056 89.4307 18.4978 89.415 18.7758 89.336V89.3585Z" fill="#6B46EF"/>
  <path fill-rule="evenodd" clip-rule="evenodd" d="M42.9095 71.6525C43.2623 71.8737 43.6704 71.9931 44.0885 71.9961C44.5405 71.9886 44.9787 71.8391 45.341 71.5686C50.2032 68.0645 54.8796 64.3094 59.351 60.3186C66.7235 53.6961 72.0035 47.5911 75.0485 42.1836C83.351 27.4386 77.846 15.5286 75.101 11.0886C74.6231 10.3192 73.9926 9.65597 73.2482 9.13996C72.5039 8.62396 71.6616 8.26611 70.7735 8.08856C65.6885 7.03106 52.5935 5.94356 41.576 18.8061C37.5335 23.5086 33.6035 30.5586 29.8985 39.7611C27.6782 45.3231 25.753 50.9985 24.131 56.7636C24.0062 57.2009 24.0232 57.6666 24.1795 58.0937C24.2487 58.2829 24.3437 58.4602 24.4608 58.621L23.4559 60.5961C23.019 61.4435 22.9043 62.4206 23.1333 63.3461C23.3623 64.2716 23.9193 65.0826 24.7009 65.6286L36.3259 73.7586C37.1065 74.3052 38.0588 74.5503 39.0063 74.4482C39.9538 74.3462 40.8321 73.9039 41.4784 73.2036L42.9095 71.6525ZM40.1412 69.7214L27.2015 60.6788L26.4559 62.1411C26.3847 62.2655 26.3636 62.4124 26.3971 62.5518C26.4305 62.6912 26.516 62.8125 26.6359 62.8911L38.2609 71.0361C38.3739 71.1177 38.5132 71.1545 38.6518 71.1392C38.7903 71.124 38.9183 71.0578 39.0109 70.9536L40.1412 69.7214ZM44.066 68.3436L27.5885 56.8236H27.611C29.1529 51.4588 30.9626 46.1747 33.0335 40.9911C36.596 32.1411 40.331 25.3911 44.126 21.0111C53.621 9.93356 64.4585 10.2636 70.076 11.4336C70.5174 11.5228 70.9357 11.7021 71.3047 11.9601C71.6738 12.2182 71.9857 12.5496 72.221 12.9336C75.2435 17.8161 79.241 27.8961 72.0935 40.5936C69.2435 45.6561 64.196 51.4686 57.0935 57.8436C52.9308 61.561 48.5828 65.0655 44.066 68.3436Z" fill="#6B46EF"/>
  <g opacity="0.6">
    <path d="M49.155 68.7393L61.0458 77.0586C61.4691 77.3559 61.9468 77.5668 62.4517 77.6791C62.9565 77.7914 63.4786 77.8029 63.988 77.713C64.4973 77.6231 64.9839 77.4336 65.4198 77.1553C65.8557 76.877 66.2325 76.5153 66.5284 76.0911L69.2283 72.2436C69.7778 71.4571 70.0205 70.4967 69.9108 69.5436L67.9193 51.8213C66.9725 52.8787 65.9615 53.9538 64.887 55.0459L66.5584 69.9186C66.5717 70.056 66.5372 70.1937 66.4608 70.3086L63.7608 74.1411C63.6767 74.2548 63.5527 74.3327 63.4137 74.3591C63.2747 74.3855 63.1309 74.3585 63.0108 74.2836L51.9434 66.5652C51.0214 67.2994 50.0919 68.0241 49.155 68.7393Z" fill="#6B46EF"/>
    <path d="M26.5823 48.8032C26.2078 49.9213 25.8449 51.0432 25.4937 52.1689L13.6758 43.8935C12.8224 43.2934 12.2414 42.3795 12.06 41.352C11.8787 40.3246 12.1118 39.2671 12.7084 38.411L15.4383 34.556C15.9744 33.7789 16.7736 33.2221 17.6883 32.9885L34.9432 28.8186C34.2729 30.0718 33.6077 31.3918 32.9484 32.7776L18.5134 36.266C18.3809 36.3011 18.2644 36.3805 18.1833 36.491L15.4908 40.346C15.4134 40.4646 15.3842 40.6084 15.4093 40.7479C15.4344 40.8873 15.5119 41.0119 15.6258 41.096L26.5823 48.8032Z" fill="#6B46EF"/>
  </g>
</svg>
